<svg width="20" height="20" viewBox="0 0 20 20" fill="none" xmlns="http://www.w3.org/2000/svg">
<path d="M8.33337 18.3333V12.8583" stroke="#EBDBBD" stroke-width="1.2" stroke-linecap="round" stroke-linejoin="round"/>
<path d="M10 9.16663H10.0083" stroke="#EBDBBD" stroke-width="1.2" stroke-linecap="round" stroke-linejoin="round"/>
<path d="M10 5.83337H10.0083" stroke="#EBDBBD" stroke-width="1.2" stroke-linecap="round" stroke-linejoin="round"/>
<path d="M11.6666 12.8583V18.3333" stroke="#EBDBBD" stroke-width="1.2" stroke-linecap="round" stroke-linejoin="round"/>
<path d="M12.5 13.3333C11.7788 12.7924 10.9015 12.5 10 12.5C9.09846 12.5 8.22123 12.7924 7.5 13.3333" stroke="#EBDBBD" stroke-width="1.2" stroke-linecap="round" stroke-linejoin="round"/>
<path d="M13.3334 9.16663H13.3417" stroke="#EBDBBD" stroke-width="1.2" stroke-linecap="round" stroke-linejoin="round"/>
<path d="M13.3334 5.83337H13.3417" stroke="#EBDBBD" stroke-width="1.2" stroke-linecap="round" stroke-linejoin="round"/>
<path d="M6.66663 9.16663H6.67496" stroke="#EBDBBD" stroke-width="1.2" stroke-linecap="round" stroke-linejoin="round"/>
<path d="M6.66663 5.83337H6.67496" stroke="#EBDBBD" stroke-width="1.2" stroke-linecap="round" stroke-linejoin="round"/>
<path d="M15 1.66663H5.00004C4.07957 1.66663 3.33337 2.41282 3.33337 3.33329V16.6666C3.33337 17.5871 4.07957 18.3333 5.00004 18.3333H15C15.9205 18.3333 16.6667 17.5871 16.6667 16.6666V3.33329C16.6667 2.41282 15.9205 1.66663 15 1.66663Z" stroke="#EBDBBD" stroke-width="1.2" stroke-linecap="round" stroke-linejoin="round"/>
</svg>
