<svg width="20" height="20" viewBox="0 0 20 20" fill="none" xmlns="http://www.w3.org/2000/svg">
<path d="M16.6666 10.8333C16.6666 15 13.7499 17.0833 10.2833 18.2916C10.1017 18.3531 9.90453 18.3502 9.72492 18.2833C6.24992 17.0833 3.33325 15 3.33325 10.8333V4.99997C3.33325 4.77895 3.42105 4.56699 3.57733 4.41071C3.73361 4.25443 3.94557 4.16663 4.16659 4.16663C5.83325 4.16663 7.91658 3.16663 9.36658 1.89997C9.54313 1.74913 9.76771 1.66626 9.99992 1.66626C10.2321 1.66626 10.4567 1.74913 10.6333 1.89997C12.0916 3.17497 14.1666 4.16663 15.8333 4.16663C16.0543 4.16663 16.2662 4.25443 16.4225 4.41071C16.5788 4.56699 16.6666 4.77895 16.6666 4.99997V10.8333Z" stroke="#816A4A" stroke-width="1.2" stroke-linecap="round" stroke-linejoin="round"/>
<path d="M5.31323 15.7583C5.66883 14.8018 6.30858 13.977 7.14658 13.3947C7.98459 12.8123 8.98071 12.5003 10.0012 12.5006C11.0217 12.5009 12.0176 12.8134 12.8553 13.3962C13.693 13.979 14.3323 14.8041 14.6874 15.7608" stroke="#816A4A" stroke-width="1.2" stroke-linecap="round" stroke-linejoin="round"/>
<path d="M10.0001 12.5C11.841 12.5 13.3334 11.0077 13.3334 9.16671C13.3334 7.32576 11.841 5.83337 10.0001 5.83337C8.15913 5.83337 6.66675 7.32576 6.66675 9.16671C6.66675 11.0077 8.15913 12.5 10.0001 12.5Z" stroke="#816A4A" stroke-width="1.2" stroke-linecap="round" stroke-linejoin="round"/>
</svg>
