<svg width="20" height="20" viewBox="0 0 20 20" fill="none" xmlns="http://www.w3.org/2000/svg">
<path d="M4.43033 16.1986C4.93727 15.0043 6.12085 14.1666 7.50008 14.1666H12.5001C13.8793 14.1666 15.0629 15.0043 15.5698 16.1986M13.3334 7.91663C13.3334 9.75758 11.841 11.25 10.0001 11.25C8.15913 11.25 6.66675 9.75758 6.66675 7.91663C6.66675 6.07568 8.15913 4.58329 10.0001 4.58329C11.841 4.58329 13.3334 6.07568 13.3334 7.91663ZM18.3334 9.99996C18.3334 14.6023 14.6025 18.3333 10.0001 18.3333C5.39771 18.3333 1.66675 14.6023 1.66675 9.99996C1.66675 5.39759 5.39771 1.66663 10.0001 1.66663C14.6025 1.66663 18.3334 5.39759 18.3334 9.99996Z" stroke="#7E6C52" stroke-width="1.2" stroke-linecap="round" stroke-linejoin="round"/>
</svg>
