<svg width="198" height="196" viewBox="0 0 198 196" fill="none" xmlns="http://www.w3.org/2000/svg">
<path d="M124 171.5H107.667V155.167H124V171.5ZM107.667 114.333H91.3333V155.167H107.667V114.333ZM173 98H156.667V130.667H173V98ZM156.667 81.6667H140.333V98H156.667V81.6667ZM58.6667 98H42.3333V114.333H58.6667V98ZM42.3333 81.6667H26V98H42.3333V81.6667ZM99.5 40.8333H115.833V24.5H99.5V40.8333ZM38.25 36.75V61.25H62.75V36.75H38.25ZM66.8333 73.5H34.1667C29.675 73.5 26 69.825 26 65.3333V32.6667C26 28.175 29.675 24.5 34.1667 24.5H66.8333C71.325 24.5 75 28.175 75 32.6667V65.3333C75 69.825 71.325 73.5 66.8333 73.5ZM38.25 134.75V159.25H62.75V134.75H38.25ZM66.8333 171.5H34.1667C29.675 171.5 26 167.825 26 163.333V130.667C26 126.175 29.675 122.5 34.1667 122.5H66.8333C71.325 122.5 75 126.175 75 130.667V163.333C75 167.825 71.325 171.5 66.8333 171.5ZM136.25 36.75V61.25H160.75V36.75H136.25ZM164.833 73.5H132.167C127.675 73.5 124 69.825 124 65.3333V32.6667C124 28.175 127.675 24.5 132.167 24.5H164.833C169.325 24.5 173 28.175 173 32.6667V65.3333C173 69.825 169.325 73.5 164.833 73.5ZM156.667 155.167V130.667H124V147H140.333V171.5H173V155.167H156.667ZM140.333 98H107.667V114.333H140.333V98ZM107.667 81.6667H58.6667V98H75V114.333H91.3333V98H107.667V81.6667ZM115.833 73.5V57.1667H99.5V40.8333H83.1667V73.5H115.833ZM56.625 42.875H44.375V55.125H56.625V42.875ZM56.625 140.875H44.375V153.125H56.625V140.875ZM154.625 42.875H142.375V55.125H154.625V42.875Z" fill="#816A4A"/>


    <rect x="1" width="196" height="196" fill="url(#paint0_linear_262_1468)">
    <animate attributeName="y" from="196" to="0" dur="5s" fill="freeze" />
    </rect>


<rect x="0" width="198" height="6" fill="#E9D0A1">
    <animate attributeName="y" from="196" to="0" dur="5s" fill="freeze" />
</rect>

<defs>
<linearGradient id="paint0_linear_262_1468" x1="99" y1="0" x2="99" y2="196" gradientUnits="userSpaceOnUse">
<stop stop-color="#6F673D"/>
<stop offset="1" stop-color="#C4C4C4" stop-opacity="0"/>
</linearGradient>
</defs>
</svg>




